<svg width="266" height="21" viewBox="0 0 266 21" fill="none" xmlns="http://www.w3.org/2000/svg">
<path d="M245.394 15.4181C244.893 15.5091 244.439 15.5091 243.938 15.6456L243.938 15.691C243.711 15.5091 243.438 15.4181 243.119 15.3726C242.301 15.2817 241.436 15.1907 240.618 15.0997C240.527 15.0997 240.481 15.1452 240.527 15.2362C240.527 15.2817 240.572 15.3271 240.572 15.3271C241.027 15.5091 241.527 15.691 242.028 15.8275C242.164 15.873 242.301 15.9185 242.437 15.9185C243.301 15.8275 244.166 16.1914 245.03 16.2824C245.212 16.2824 245.394 16.3734 245.576 16.3734C246.531 16.3279 247.441 16.5553 248.396 16.7373C248.669 16.7828 248.896 16.8283 249.169 16.8283C249.988 16.7828 250.761 16.9647 251.535 17.1922C251.535 17.1922 251.58 17.2376 251.58 17.2831C251.08 17.4196 250.579 17.3286 250.079 17.2377C249.078 17.0102 248.078 16.9647 247.031 16.9192C246.758 16.9192 246.531 16.9192 246.258 16.8737C245.439 16.6463 244.621 16.6008 243.756 16.5553C243.665 16.5553 243.62 16.6008 243.62 16.6463C243.62 16.6918 243.665 16.7373 243.665 16.7373C244.211 16.9647 244.757 17.1467 245.348 17.1012C245.667 17.1012 245.985 17.1012 246.349 17.1012C246.713 17.1012 247.077 17.1922 247.304 17.5106C247.532 17.829 247.759 17.829 248.032 17.738C248.396 17.6016 248.76 17.6016 249.078 17.5106C249.351 17.4651 249.67 17.4651 249.943 17.6016C250.216 17.738 250.489 17.738 250.807 17.738C250.943 17.738 251.08 17.7835 251.171 17.92C251.216 18.011 251.307 18.1019 251.353 18.1474C251.808 18.3749 252.263 18.6023 252.808 18.6023C253.218 18.6023 253.582 18.6933 253.991 18.7842C254.673 18.9207 255.356 19.0572 256.038 19.1027C256.584 19.1482 257.13 19.2846 257.63 19.3756C257.858 19.4211 258.04 19.4666 258.267 19.4666C259.586 19.5121 260.86 19.9215 262.133 20.0124C262.179 20.0124 262.224 20.1489 262.224 20.1944C262.224 20.2399 262.133 20.2854 262.088 20.3309C262.043 20.3309 261.952 20.3763 261.861 20.3309C261.451 20.2854 261.042 20.2854 260.678 20.2399C259.814 20.1489 258.949 20.0124 258.085 19.9215C257.266 19.8305 256.402 19.7395 255.583 19.603C255.083 19.5575 254.582 19.5121 254.082 19.4666C253.9 19.4666 253.718 19.4666 253.536 19.3756C252.99 19.1936 252.399 19.1936 251.808 19.1936C250.625 19.1936 249.488 19.0572 248.305 18.9662C248.123 18.9662 247.941 18.9207 247.759 18.9207C247.395 18.9207 247.031 18.8752 246.667 18.7842C246.213 18.6478 245.758 18.6023 245.257 18.5568C244.484 18.5113 243.756 18.4658 242.983 18.3749C242.255 18.2839 241.527 18.1474 240.845 18.0564C240.208 17.9655 239.526 17.92 238.889 17.8745C238.298 17.829 237.752 17.7835 237.16 17.6925C236.615 17.6016 236.069 17.5561 235.523 17.5106C233.794 17.3286 232.066 17.1922 230.292 17.0102C229.518 16.9192 228.791 16.8283 228.017 16.7373C226.926 16.6463 225.834 16.5553 224.742 16.4189C223.378 16.2824 222.013 16.1459 220.603 16.1004C219.784 16.1004 219.011 15.964 218.237 15.8275C217.828 15.782 217.464 15.7365 217.055 15.691C216.281 15.6456 215.554 15.6001 214.78 15.5091C214.507 15.5091 214.28 15.4636 214.007 15.4636C213.37 15.5091 212.688 15.4181 212.051 15.3271C211.46 15.2362 210.914 15.2362 210.322 15.1907C209.322 15.1452 208.275 15.0542 207.275 15.0087C207.002 15.0087 206.683 15.0087 206.41 14.9632C205.455 14.8268 204.454 14.7813 203.454 14.7813C203.135 14.7813 202.817 14.7358 202.453 14.7358C201.498 14.6448 200.588 14.5538 199.633 14.5538C199.314 14.5538 198.996 14.5538 198.632 14.5084C197.768 14.3719 196.903 14.4174 196.039 14.3719C195.22 14.3264 194.447 14.2809 193.628 14.2354C193.037 14.1899 192.446 14.1899 191.9 14.1444C191.081 14.099 190.308 14.0535 189.489 14.008C189.261 14.008 189.034 13.9625 188.852 13.9625C187.715 14.0535 186.578 13.917 185.486 13.917C184.849 13.917 184.167 13.826 183.53 13.826C182.347 13.7805 181.119 13.7351 179.936 13.6896C179.117 13.6441 178.344 13.6441 177.525 13.5986C177.07 13.5531 176.57 13.5531 176.115 13.5986C175.888 13.6441 175.66 13.6441 175.478 13.5986C175.024 13.5076 174.523 13.5076 174.068 13.5076C173.068 13.4621 172.021 13.4166 171.021 13.4166C170.839 13.4166 170.657 13.3711 170.475 13.3711C169.565 13.4621 168.655 13.3711 167.745 13.3711C166.699 13.3711 165.653 13.4166 164.561 13.4166C163.879 13.4166 163.197 13.3711 162.469 13.3711C162.196 13.3711 161.877 13.3257 161.604 13.3711C160.968 13.4621 160.376 13.4166 159.739 13.3711C158.921 13.3257 158.147 13.2347 157.329 13.3711C157.238 13.3711 157.101 13.3711 157.01 13.3711C155.464 13.2347 153.871 13.3711 152.325 13.3257C150.869 13.2802 149.414 13.2802 147.958 13.2802C146.957 13.2802 145.911 13.3711 144.91 13.2802C143.045 13.3711 141.18 13.2802 139.361 13.4166C138.178 13.5076 136.95 13.4621 135.767 13.4621C135.312 13.4621 134.812 13.4621 134.357 13.4621C133.174 13.4621 131.946 13.5076 130.763 13.5531C129.854 13.5531 128.944 13.5531 128.034 13.5986C126.397 13.6896 124.759 13.6896 123.121 13.6896C122.667 13.6896 122.166 13.6896 121.711 13.735C120.119 13.7805 118.527 13.826 116.89 13.7805C116.617 13.7805 116.298 13.7805 116.025 13.826C114.524 13.9625 112.978 13.9625 111.431 14.008C110.248 14.0535 109.111 14.0535 107.928 14.099C107.428 14.099 106.928 14.1444 106.427 13.917C106.291 13.8715 106.109 13.8715 106.018 13.917C105.472 14.1899 104.881 14.1899 104.289 14.1899C102.925 14.2354 101.606 14.2354 100.241 14.2809C99.5585 14.2809 98.8762 14.3264 98.1939 14.3719C97.9664 14.3719 97.739 14.3719 97.5571 14.4174C97.1022 14.4174 96.7838 14.2809 96.7383 13.7805C96.7383 13.7805 96.6018 13.735 96.5563 13.735C96.5108 13.735 96.5108 13.7805 96.4653 13.826C96.3744 14.3264 96.0559 14.4629 95.6011 14.4629C94.6003 14.4629 93.6451 14.5083 92.6443 14.5538C90.5519 14.6448 88.5049 14.7358 86.4124 14.7358C85.7756 14.7358 85.0933 14.8268 84.4564 14.8268C83.0463 14.8723 81.6362 14.9177 80.1805 14.9632C79.9531 14.9632 79.7257 14.9632 79.5437 15.0087C78.27 15.1452 76.9964 15.1452 75.7227 15.1452C74.2216 15.1907 72.7205 15.2816 71.2648 15.3271C70.7645 15.3271 70.2641 15.3726 69.7182 15.3726C68.1716 15.4181 66.5796 15.4636 65.033 15.5546C64.5781 15.5546 64.0777 15.6456 63.6228 15.691C62.4856 15.782 61.3484 15.691 60.2567 15.7365C59.8018 15.782 59.3924 15.782 58.9375 15.691C58.7556 15.6456 58.5736 15.6456 58.3917 15.691C57.3 15.8275 56.2082 15.691 55.1165 15.7365C54.0703 15.782 53.0241 15.7365 51.9323 15.782C50.8861 15.782 49.8399 15.8275 48.7482 15.873C48.4297 15.873 48.0658 15.873 47.7929 15.964C47.3835 16.0549 47.0196 16.1914 46.6102 16.1004C46.2008 16.0549 45.8369 16.1459 45.4275 16.0095C45.2456 15.9185 44.9727 15.964 44.7907 16.0095C43.699 16.2369 42.5618 16.1914 41.4246 16.1914C40.0599 16.1914 38.7408 16.1914 37.3761 16.1914C36.4663 16.1914 35.5566 16.1914 34.6468 16.1914C33.3277 16.1459 32.0085 16.2369 30.7348 16.1004C30.5984 16.1004 30.4619 16.1004 30.2799 16.1004C29.1882 16.2824 28.0965 16.1004 27.0048 16.0549C26.7319 16.0549 26.4135 16.0095 26.1405 16.0095C25.1853 16.0549 24.23 16.0095 23.3203 16.0095C23.0018 16.0095 22.6834 16.0095 22.3195 16.0095C22.0011 16.0095 21.6827 16.0095 21.3188 16.0095C20.5 15.9185 19.6357 15.9185 18.8169 15.9185C18.0436 15.873 17.2703 15.873 16.5425 15.8275C15.3143 15.782 14.0861 15.691 12.858 15.6456C11.2204 15.5546 9.58279 15.5091 7.94522 15.3726C6.62607 15.2816 5.26144 15.0997 3.94226 14.9632C3.44189 14.9177 2.9415 14.7358 2.44113 14.6448C1.80429 14.5083 1.30395 14.1899 0.758087 13.8715C0.485168 13.735 0.303192 13.4621 0.25772 13.1892C0.166717 12.8253 0.0757441 12.4614 0.0302729 12.143C-0.0152287 11.4606 -0.0606999 10.7783 0.303222 10.1415C0.348693 10.005 0.394195 9.86854 0.439666 9.73208C0.621612 9.14073 0.940033 8.73134 1.4859 8.41292C1.80432 8.23097 2.12271 8.0945 2.5321 8.13999C2.987 8.13999 3.4874 8.18548 3.94226 8.18548C4.16971 8.18548 4.39712 8.18548 4.5791 8.13999C5.07947 7.95804 5.57983 8.00353 6.0802 8.04902C6.35312 8.0945 6.67154 8.0945 6.94449 8.0945C7.21741 8.0945 7.53583 8.0945 7.80878 7.95804C8.21817 7.7306 8.62756 7.68511 9.08243 7.7306C10.4926 7.77609 11.9027 7.7306 13.3583 7.82157C14.2226 7.86706 15.0869 7.82157 15.9511 7.86706C16.406 7.86706 16.9064 7.91255 17.3613 7.91255C17.9981 7.91255 18.5895 7.95804 19.2263 7.95804C20.591 8.00353 22.0011 7.91255 23.3657 8.0945C23.4112 8.0945 23.4567 8.0945 23.4567 8.0945C23.6387 8.0945 23.7751 8.00353 23.8206 7.77609C23.8206 7.59413 23.9571 7.54864 24.0936 7.50316C24.1845 7.50316 24.321 7.45767 24.412 7.50316C25.2308 7.59413 26.095 7.59413 26.9138 7.59413C27.6871 7.59413 28.4149 7.7306 29.1882 7.63962C29.3702 7.63962 29.5521 7.63962 29.7341 7.59413C30.1435 7.41218 30.5984 7.45767 31.0078 7.54865C31.3262 7.59413 31.6446 7.59413 31.963 7.54865C32.3269 7.50316 32.6908 7.50316 33.0547 7.50316C33.2367 7.50316 33.4186 7.50316 33.6006 7.54865C34.1919 7.77609 34.7833 7.7306 35.4201 7.7306C36.2844 7.68511 37.1487 7.7306 38.0584 7.77609C38.1039 7.77609 38.1494 7.77609 38.1494 7.82157C38.1949 7.91255 38.1494 7.95804 38.0584 7.95804C37.9675 8.00353 37.831 8.00353 37.74 8.04902C37.74 8.04902 37.6945 8.0945 37.6945 8.13999C37.6945 8.18548 37.6945 8.23097 37.74 8.23097C37.7855 8.27646 37.8765 8.32195 37.922 8.32195C38.2404 8.32195 38.5588 8.32195 38.8772 8.32195C39.0137 8.32195 39.1501 8.23097 39.1956 8.0945C39.3321 7.68511 39.6505 7.54865 40.0144 7.50316C40.6058 7.45767 41.1516 7.36669 41.743 7.45767C41.9704 7.50316 42.1979 7.50316 42.3798 7.45767C42.6527 7.41218 42.9712 7.41218 43.2441 7.50316C43.3806 7.54865 43.517 7.54865 43.699 7.50316C44.0174 7.45767 44.3358 7.41218 44.6542 7.50316C44.7907 7.54865 44.9272 7.50316 45.0636 7.45767C45.2911 7.45767 45.5185 7.36669 45.7005 7.41218C46.7012 7.54865 47.6565 7.36669 48.6572 7.41218C50.5677 7.45767 52.4327 7.27572 54.3432 7.36669C54.4342 7.36669 54.5707 7.36669 54.6616 7.36669C56.7996 7.18474 58.9375 7.23023 61.0755 7.13925C61.6213 7.13925 62.1672 7.09376 62.7131 7.13925C63.2134 7.18474 63.7138 7.13925 64.2142 7.04828C64.6236 7.00279 64.9875 6.9573 65.3969 6.9573C66.716 6.91181 68.0352 6.86632 69.3089 6.77535C69.5818 6.77535 69.8092 6.77535 70.0822 6.77535C70.2641 6.77535 70.4461 6.82084 70.628 6.77535C71.6288 6.63888 72.675 6.68437 73.6757 6.68437C74.1306 6.68437 74.631 6.68437 75.0859 6.63888C75.6317 6.59339 76.1776 6.54791 76.7234 6.59339C76.8599 6.59339 76.9964 6.59339 77.1783 6.59339C77.7242 6.54791 78.27 6.50242 78.8159 6.50242C79.3618 6.45693 79.9076 6.45693 80.4535 6.32047C80.7264 6.22949 81.0448 6.184 81.3177 6.27498C81.9091 6.41144 82.455 6.32047 83.0463 6.32047C83.6376 6.32047 84.229 6.32047 84.7749 6.32047C85.7756 6.27498 86.7308 6.22949 87.7316 6.22949C88.0955 6.22949 88.4594 6.184 88.8233 6.32047C88.8688 6.32047 88.8688 6.36595 88.8688 6.41144C88.8688 6.45693 88.8688 6.50242 88.8688 6.50242C88.8233 6.54791 88.7778 6.5934 88.6869 6.63888C88.323 6.72986 87.959 6.72986 87.5951 6.68437C86.7763 6.63888 85.9121 6.77535 85.0933 6.59339C84.5929 6.63888 84.0925 6.72986 83.5922 6.77535C83.3192 6.82084 83.0463 6.86632 82.8189 6.82084C82.364 6.68437 81.9546 6.77535 81.5452 6.86632C81.3177 6.91181 81.0903 6.91181 80.9084 6.91181C80.0896 6.91181 79.3163 6.9573 78.4975 6.9573C78.3155 6.9573 78.1336 6.91181 77.9516 6.91181C77.4967 6.86632 76.9964 6.86632 76.5415 6.9573C76.2231 7.04828 75.9046 7.04828 75.5862 7.04828C74.5855 6.9573 73.5393 7.09376 72.5385 7.09376C72.3111 7.09376 72.0836 7.13925 71.9017 7.18474C71.3558 7.36669 70.7645 7.36669 70.1731 7.36669C69.7637 7.36669 69.3543 7.36669 68.9904 7.36669C68.854 7.36669 68.7175 7.41218 68.5356 7.41218C68.6265 7.45767 68.672 7.54865 68.7175 7.54865C69.4453 7.54865 70.1731 7.54865 70.901 7.54865C71.4013 7.54865 71.9017 7.54865 72.5385 7.59413C71.9472 7.95804 71.4468 8.13999 70.901 8.04902C70.4461 7.95804 69.9457 7.95804 69.4908 8.09451C69.1269 8.18548 68.763 8.13999 68.3991 8.09451C68.0807 8.04902 67.7623 8.04902 67.4438 8.13999C67.0799 8.27646 66.716 8.27646 66.3521 8.13999C65.8518 8.00353 65.3514 8.00353 64.851 8.09451C64.3506 8.13999 63.8503 8.18548 63.3499 8.18548C62.7131 8.13999 62.0307 8.18548 61.3939 8.27646C60.6206 8.36744 59.8928 8.45841 59.1195 8.32195C58.9375 8.27646 58.7556 8.32195 58.5736 8.32195C57.7549 8.41292 56.8906 8.5039 56.0718 8.5039C55.7988 8.5039 55.5714 8.54939 55.3894 8.77683C54.7071 8.73134 54.7071 8.73134 54.4342 8.86781C54.7526 8.95878 55.071 8.91329 55.344 8.77683C55.5259 8.8678 55.7534 8.95878 55.9808 8.95878C57.2545 8.86781 58.5282 8.95878 59.8018 8.95878C61.03 8.95878 62.2582 8.91329 63.4864 8.82232C63.9412 8.77683 64.3506 8.77683 64.8055 8.77683C65.2604 8.77683 65.6698 8.73134 66.1247 8.73134C66.6705 8.68585 67.2164 8.64037 67.7623 8.68585C68.0807 8.68585 68.3991 8.64036 68.763 8.64036C69.2179 8.64036 69.6273 8.54939 70.0822 8.64036C70.2641 8.68585 70.4461 8.64036 70.628 8.64036C71.3103 8.54939 71.9927 8.5039 72.675 8.54939C73.0389 8.54939 73.4028 8.54939 73.7667 8.54939C74.0851 8.54939 74.4035 8.54939 74.7675 8.54939C75.0859 8.54939 75.3133 8.73134 75.4498 9.00427C75.4498 9.04976 75.4953 9.04976 75.5407 9.09525C75.5862 9.09525 75.6317 9.14074 75.6317 9.09525C75.9501 9.00427 76.2231 8.86781 76.5415 8.77683C76.6325 8.73134 76.587 8.64036 76.5415 8.59488C76.4505 8.54939 76.405 8.45841 76.496 8.45841C76.9054 8.41292 77.3148 8.41292 77.6787 8.41292C78.1791 8.41292 78.6794 8.41292 79.1798 8.32195C79.5437 8.27646 79.9076 8.27646 80.2715 8.27646C80.499 8.27646 80.7264 8.23097 80.8629 8.09451C80.9084 8.04902 80.9539 7.95804 80.9539 7.91255C80.9539 7.86706 80.9084 7.77609 80.8629 7.7306C80.8174 7.68511 80.7264 7.68511 80.6354 7.68511C80.3625 7.68511 80.1351 7.68511 79.8621 7.7306C79.3163 7.77609 78.7704 7.91255 78.2246 7.91255C77.7242 7.95804 77.2238 7.91255 76.7234 7.86706C76.2686 7.82158 75.7682 7.82158 75.3133 7.91255C74.8584 8.00353 74.3581 7.95804 73.9032 7.91255C73.8577 7.91255 73.8122 7.86706 73.8122 7.82158C73.8577 7.77609 73.8577 7.68511 73.9032 7.68511C74.0851 7.63962 74.2671 7.59414 74.449 7.59414C75.3588 7.54865 76.2686 7.54865 77.1783 7.54865C78.361 7.54865 79.4982 7.50316 80.6809 7.50316C81.3633 7.50316 82.0456 7.50316 82.7279 7.32121C83.0918 7.23023 83.3647 7.45767 83.6832 7.50316C83.7741 7.50316 83.8196 7.59414 83.7741 7.68511C83.7741 7.7306 83.7286 7.77609 83.6832 7.77609C83.5467 7.82158 83.4102 7.86707 83.2737 7.86707C82.9098 7.82158 82.5459 7.7306 82.182 7.82158C82.091 7.82158 81.9546 7.86707 81.9091 8.00353C81.8636 8.09451 82.0001 8.18548 82.1365 8.23097C82.2275 8.23097 82.273 8.23097 82.364 8.23097C82.455 8.23097 82.5004 8.23097 82.5914 8.23097C83.5922 8.23097 84.6384 8.27646 85.6391 8.27646C85.7301 8.27646 85.7756 8.27646 85.8666 8.32195C85.9121 8.36744 86.003 8.41292 86.003 8.45841C86.003 8.5039 85.9575 8.59488 85.9121 8.64037C85.8666 8.73134 85.7756 8.77683 85.6391 8.9133C85.8666 8.9133 86.003 8.9133 86.1395 8.9133C86.3215 8.95878 86.5034 8.86781 86.5944 8.73134C86.8673 8.27646 87.3222 8.14 87.7771 8.04902C88.3684 7.95804 89.0053 7.82158 89.5966 8.00353C89.8696 8.09451 90.188 8.04902 90.4609 8.04902C91.0522 8.04902 91.6436 8.00353 92.1894 7.95804C92.5079 7.95804 92.8263 8.00353 93.1447 8.09451C93.5086 8.23097 93.827 8.23097 94.1909 8.04902C94.3274 7.95804 94.5548 7.91255 94.6913 7.95804C95.0552 8.00353 95.4191 7.91255 95.783 7.82158C96.0105 7.77609 96.2834 7.77609 96.5108 7.91255C96.3289 8.18548 96.0559 8.27646 95.783 8.32195C95.6011 8.36744 95.4191 8.36744 95.2372 8.41292C95.1917 8.41292 95.1917 8.5039 95.1462 8.54939C95.1462 8.54939 95.1917 8.59488 95.2372 8.59488C95.692 8.68585 96.1014 8.68585 96.5108 8.54939C96.6928 8.5039 96.7838 8.27646 96.6928 8.09451C96.6473 8.00353 96.5563 7.91255 96.5108 7.82158C96.7383 7.86707 97.0112 7.91255 97.2386 7.95804C97.3751 8.00353 97.5116 7.91255 97.6025 7.82158C97.648 7.86707 97.6935 7.91255 97.739 7.95804C98.0119 8.18548 98.3304 8.23097 98.6488 8.04902C98.8762 7.86707 99.1491 7.77609 99.4676 7.77609C100.286 7.68511 101.06 7.7306 101.878 7.7306C102.242 7.7306 102.424 7.82158 102.47 8.18548C102.47 8.27646 102.561 8.27646 102.652 8.23097C102.697 8.18548 102.788 8.14 102.788 8.04902C102.97 7.63963 103.243 7.54865 103.652 7.54865C103.971 7.54865 104.198 7.68511 104.289 8.00353C104.335 8.14 104.471 8.14 104.562 8.04902C104.835 7.63963 105.199 7.50316 105.654 7.50316C106.245 7.50316 106.837 7.45767 107.383 7.45767C107.473 7.45767 107.61 7.45767 107.701 7.45767C107.928 7.50316 108.11 7.59414 108.201 7.82158C108.247 7.91255 108.292 8.00353 108.429 8.00353C108.565 8.00353 108.611 7.91255 108.656 7.82158C108.702 7.7306 108.702 7.59414 108.747 7.50316C108.793 7.41218 108.884 7.27572 108.975 7.27572C109.384 7.23023 109.839 7.13925 110.248 7.27572C110.84 7.45767 111.385 7.45767 111.977 7.27572C112.295 7.18474 112.614 7.13925 112.932 7.18474C113.523 7.23023 114.115 7.23023 114.661 7.23023C115.025 7.23023 115.388 7.18474 115.752 7.13925C115.889 7.13925 115.98 7.00279 115.889 6.82084C115.889 6.72986 115.843 6.68437 115.798 6.63888C115.798 6.50242 115.798 6.41144 115.934 6.36595C116.071 6.32047 116.207 6.22949 116.344 6.22949C116.662 6.184 116.981 6.22949 117.344 6.22949C117.526 6.22949 117.708 6.27498 117.89 6.22949C118.391 6.09303 118.846 6.184 119.209 6.45693C119.073 6.50242 118.891 6.45693 118.664 6.45693C118.436 6.45693 118.209 6.45693 118.027 6.50242C117.799 6.50242 117.572 6.54791 117.39 6.54791C117.162 6.5934 117.026 6.72986 117.026 6.86633C117.026 7.00279 117.162 7.18474 117.39 7.18474C117.936 7.18474 118.482 7.18474 119.027 7.18474C119.073 7.18474 119.164 7.23023 119.209 7.27572L119.209 7.3667C118.982 7.41218 118.709 7.45767 118.482 7.50316C118.391 7.50316 118.3 7.59414 118.209 7.63963C118.209 7.63963 118.163 7.7306 118.209 7.7306C118.482 7.86707 118.755 7.95804 119.027 7.86707C119.437 7.77609 119.801 7.63963 120.21 7.63963C120.256 7.63963 120.301 7.54865 120.301 7.50316C120.301 7.3667 120.301 7.27572 120.438 7.27572C120.574 7.27572 120.711 7.27572 120.847 7.27572C120.893 7.27572 120.983 7.32121 121.029 7.41218C121.347 7.86707 121.757 8.00353 122.257 7.86707C122.485 7.82158 122.667 7.82158 122.894 7.77609C122.939 7.77609 122.985 7.63963 122.939 7.59414C122.939 7.50316 122.849 7.3667 122.894 7.27572C122.939 7.18474 123.076 7.13925 123.167 7.13925C123.576 7.04828 124.031 7.04828 124.441 7.13925C124.486 7.13925 124.532 7.27572 124.486 7.32121C124.441 7.3667 124.35 7.41218 124.304 7.45767C124.259 7.50316 124.213 7.59414 124.259 7.63963C124.259 7.68511 124.35 7.77609 124.395 7.77609C124.668 7.77609 124.986 7.7306 125.168 7.50316C125.35 7.27572 125.532 7.13925 125.805 7.13925C126.351 7.04828 126.897 7.00279 127.443 6.91181C127.807 6.86633 128.171 6.91181 128.489 7.04828C128.717 7.13926 128.807 7.23023 128.762 7.27572C128.671 7.41218 128.535 7.41218 128.398 7.45767C128.171 7.50316 127.943 7.50316 127.761 7.50316C127.716 7.50316 127.67 7.54865 127.579 7.59414C128.171 7.63963 128.762 7.7306 129.308 7.77609C129.581 7.77609 129.808 7.77609 130.081 7.7306C130.582 7.68511 131.082 7.63963 131.582 7.68511C131.81 7.7306 131.992 7.63963 132.219 7.63963C132.401 7.59414 132.447 7.50316 132.356 7.27572C132.31 7.18474 132.31 7.13926 132.401 7.09377C132.447 7.09377 132.538 7.04828 132.628 7.04828C132.992 7.09377 133.356 7.09377 133.72 7.04828C133.993 7.00279 134.312 7.04828 134.584 7.04828C134.903 7.04828 135.13 7.13926 135.312 7.41218C135.54 7.7306 135.858 7.59414 136.086 7.45767C136.222 7.3667 136.313 7.18474 136.45 7.04828C136.722 6.82084 137.041 6.68437 137.359 6.77535C137.905 6.9573 138.405 7.00279 138.951 6.9573C139.088 6.9573 139.224 7.00279 139.361 7.00279C139.497 7.00279 139.497 7.09377 139.452 7.23023C139.361 7.50316 139.406 7.63963 139.679 7.63963C140.407 7.63963 141.135 7.59414 141.863 7.59414C142.045 7.59414 142.272 7.54865 142.317 7.32121C142.408 7.04828 142.545 7.00279 142.818 7.00279C142.909 7.00279 143.045 7.00279 143.136 7.04828C143.227 7.04828 143.227 7.13926 143.227 7.23023C143.182 7.41219 143.364 7.50316 143.455 7.54865C143.773 7.68512 144.092 7.54865 144.364 7.3667C144.364 7.3667 144.319 7.23023 144.273 7.18474C144.228 7.09377 144.228 7.04828 144.319 7.00279C144.819 6.86633 145.32 6.9573 145.775 7.23023L145.775 7.18474C145.866 7.3667 146.002 7.50316 146.229 7.41219L146.184 7.45767C146.502 7.45767 146.821 7.3667 147.139 7.41219C147.458 7.45767 147.776 7.54865 148.094 7.59414C148.185 7.59414 148.367 7.50316 148.367 7.45767C148.367 7.41219 148.322 7.32121 148.276 7.32121C148.231 7.27572 148.14 7.27572 148.094 7.23023C148.094 7.23023 148.049 7.18474 148.049 7.13926C148.049 7.09377 148.094 7.04828 148.094 7.04828C148.595 7.00279 149.095 6.9573 149.596 6.91181C149.869 6.86633 150.096 7.00279 150.187 7.27572C150.232 7.45767 150.414 7.54865 150.596 7.59414C150.824 7.63963 151.051 7.63963 151.233 7.63963C152.188 7.63963 153.189 7.63963 154.144 7.63963C154.463 7.63963 154.781 7.59414 155.1 7.45767C155.145 7.45767 155.191 7.41219 155.191 7.41219C155.236 7.32121 155.191 7.27572 155.1 7.27572C154.69 7.23023 154.235 7.23023 153.826 7.18474C153.826 7.18474 153.781 7.13926 153.781 7.09377C153.781 7.04828 153.826 7.00279 153.826 7.00279C153.962 6.9573 154.099 6.91182 154.235 6.9573C154.645 7.04828 155.009 7.09377 155.418 7.00279C155.646 6.9573 155.918 7.04828 156.146 7.04828C156.373 7.04828 156.555 7.09377 156.783 7.13926C156.783 7.27572 156.737 7.3667 156.737 7.45767C156.783 7.54865 156.874 7.63963 156.965 7.63963C157.192 7.68512 157.465 7.7306 157.693 7.77609C157.738 7.77609 157.783 7.86707 157.829 7.86707C157.783 7.91256 157.693 7.91256 157.647 7.95805C157.556 8.00353 157.465 8.00353 157.329 8.04902C157.329 8.04902 157.329 8.09451 157.329 8.14C157.329 8.18549 157.374 8.18549 157.42 8.18549C157.965 8.23097 158.511 8.04902 158.875 7.63963C159.057 7.63963 159.239 7.63963 159.376 7.63963C159.421 7.63963 159.421 7.54865 159.467 7.50316C159.421 7.45767 159.33 7.41219 159.285 7.41219C159.148 7.45767 158.966 7.59414 158.83 7.63963C158.739 7.54865 158.648 7.41219 158.557 7.32121C158.557 7.27572 158.511 7.23023 158.511 7.23023C158.557 7.18474 158.602 7.09377 158.648 7.09377C158.921 7.09377 159.148 7.04828 159.421 7.04828C159.694 7.04828 159.921 7.13926 160.103 7.3667C160.194 7.45767 160.285 7.41219 160.376 7.32121C160.467 7.23023 160.513 7.09377 160.604 7.09377C161.013 7.00279 161.377 6.91182 161.786 6.9573C162.696 7.13926 163.606 7.04828 164.516 7.00279C164.743 7.00279 164.925 6.91182 165.107 6.77535C165.289 6.63889 165.516 6.63889 165.698 6.77535C165.926 7.00279 166.199 7.04828 166.517 7.04828C166.836 7.04828 167.154 7.04828 167.518 7.04828C167.563 7.04828 167.654 7.09377 167.7 7.13926C167.745 7.18474 167.609 7.3667 167.518 7.3667C167.291 7.41219 167.109 7.41219 166.881 7.45767C166.79 7.45767 166.745 7.54865 166.79 7.63963C166.79 7.68512 166.836 7.68512 166.881 7.68512C167.563 7.59414 168.246 7.77609 168.928 7.59414C168.974 7.59414 169.019 7.54865 169.019 7.54865C168.974 7.50316 168.974 7.45767 168.928 7.3667C168.883 7.32121 168.837 7.27572 168.792 7.18475C168.792 7.18475 168.792 7.09377 168.837 7.09377C168.883 7.04828 168.974 7.04828 169.019 7.04828C169.474 7.04828 169.883 7.00279 170.338 7.04828C170.93 7.04828 171.521 7.09377 172.067 7.00279C172.294 6.9573 172.522 7.00279 172.704 7.00279C173.159 7.04828 173.568 7.09377 174.023 7.09377C174.205 7.09377 174.296 7.18475 174.25 7.27572C174.205 7.32121 174.159 7.3667 174.068 7.3667C173.431 7.41219 172.84 7.45767 172.203 7.3667C171.612 7.27572 171.021 7.32121 170.475 7.32121C170.429 7.32121 170.338 7.3667 170.338 7.45767C170.338 7.50316 170.384 7.59414 170.429 7.59414C170.657 7.63963 170.839 7.68512 171.066 7.7306C171.293 7.77609 171.566 7.86707 171.839 8.00353C171.885 8.00353 171.976 7.95805 172.067 7.91256C172.34 7.7306 172.658 7.63963 172.977 7.7306C173.568 7.86707 174.114 7.82158 174.705 7.82158C174.978 7.82158 175.205 7.82158 175.478 7.77609C175.842 7.68512 176.206 7.7306 176.57 7.82158C176.843 7.91256 177.116 7.95805 177.434 7.91256C177.616 7.91256 177.798 7.95805 177.98 7.95805C178.117 7.95805 178.253 8.00353 178.39 8.00353C179.663 7.82158 180.937 7.82158 182.211 7.91256C182.256 7.91256 182.302 7.91256 182.302 7.91256C182.347 7.86707 182.438 7.86707 182.484 7.82158C182.484 7.77609 182.438 7.68512 182.393 7.63963C182.211 7.45768 182.211 7.3667 182.393 7.27572C182.666 7.18475 182.938 7.09377 183.211 7.04828C183.53 6.9573 183.848 6.9573 184.121 7.23023C184.212 7.32121 184.303 7.3667 184.394 7.3667C184.758 7.32121 185.122 7.50316 185.44 7.54865C185.713 7.59414 186.032 7.63963 186.305 7.59414C186.714 7.50316 187.078 7.54865 187.487 7.59414C188.033 7.68512 188.579 7.63963 189.125 7.45768C189.307 7.3667 189.534 7.3667 189.762 7.32121C189.898 7.32121 190.08 7.32121 190.171 7.32121C190.535 7.41219 190.853 7.54865 191.217 7.3667C191.263 7.3667 191.308 7.3667 191.308 7.3667C192.127 7.68512 193.037 7.63963 193.856 7.91256C193.901 7.91256 193.901 8.04902 193.901 8.09451C193.901 8.09451 193.856 8.14 193.81 8.14C193.719 8.14 193.674 8.14 193.583 8.14C193.219 8.00353 192.809 8.00353 192.4 8.04902C192.355 8.04902 192.264 8.09451 192.218 8.14C192.173 8.14 192.173 8.18549 192.173 8.23098C192.173 8.27646 192.173 8.32195 192.218 8.32195C192.264 8.36744 192.355 8.41293 192.4 8.41293C192.9 8.45842 193.401 8.45842 193.947 8.45842C194.583 8.45842 195.175 8.45842 195.812 8.59488C196.267 8.68586 196.767 8.73135 197.222 8.64037C197.267 8.64037 197.358 8.54939 197.358 8.50391C197.358 8.45842 197.267 8.36744 197.222 8.36744C197.04 8.32195 196.858 8.32195 196.676 8.27646C196.448 8.23098 196.312 8.04902 196.176 7.91256C196.767 8.00353 197.404 8.04902 197.995 8.04902C198.268 8.04902 198.586 8.09451 198.859 8.09451C199.36 8.14 199.86 8.18549 200.36 8.18549C200.724 8.18549 201.088 8.27646 201.452 8.32195C201.543 8.32195 201.589 8.41293 201.543 8.45842C201.543 8.50391 201.498 8.50391 201.452 8.50391C201.134 8.50391 200.815 8.50391 200.497 8.50391C200.042 8.50391 199.633 8.45842 199.178 8.45842C199.132 8.45842 199.087 8.54939 199.087 8.59488L199.132 8.68586C199.451 8.82232 199.769 8.86781 200.088 8.9133C200.724 8.95879 201.407 8.95879 202.044 9.00428C202.225 9.00428 202.407 8.9133 202.498 8.77683C202.589 8.64037 202.635 8.54939 202.726 8.41293C202.771 8.36744 202.862 8.32195 202.908 8.32195C202.999 8.32195 203.135 8.32195 203.226 8.41293C203.317 8.50391 203.272 8.59488 203.226 8.68586C203.135 8.86781 203.181 8.95879 203.317 9.00428C203.408 9.04976 203.545 9.04976 203.636 9.04976C203.772 9.04976 203.954 9.00428 203.954 8.86781C204 8.59488 204.181 8.50391 204.409 8.50391C204.818 8.50391 205.228 8.41293 205.592 8.64037C205.637 8.64037 205.637 8.68586 205.637 8.73135C205.637 8.77684 205.637 8.82232 205.592 8.82232C205.41 8.86781 205.273 8.9133 205.091 8.95879C205.046 8.95879 205 9.00428 205 9.00428C205.046 9.04976 205.046 9.14074 205.091 9.14074C205.728 9.23172 206.365 9.3227 207.047 9.41367C207.138 9.41367 207.184 9.41367 207.275 9.41367C208.548 9.3227 209.822 9.50465 211.05 9.55014C211.141 9.55014 211.187 9.55014 211.278 9.55014C212.142 9.50465 212.915 9.6866 213.734 9.91404C213.961 9.95953 214.143 9.95953 214.371 9.95953C214.598 9.91404 214.826 9.86855 215.008 9.91404C215.872 10.096 216.736 10.0505 217.601 10.1415C218.374 10.2325 219.102 10.187 219.875 10.4144C220.057 10.4599 220.284 10.4599 220.512 10.4599C221.149 10.4599 221.74 10.4599 222.331 10.5964C222.286 10.6419 222.195 10.6873 222.149 10.7328C222.104 10.7328 222.104 10.7783 222.104 10.8238C222.104 10.8693 222.149 10.9148 222.149 10.9148C222.24 10.9603 222.286 10.9148 222.286 10.8238C222.286 10.7328 222.286 10.6873 222.286 10.5964C222.513 10.5964 222.741 10.5509 222.923 10.5509C223.423 10.5964 223.923 10.6419 224.424 10.7328C224.879 10.8238 225.379 10.8693 225.834 10.8693C226.289 10.8693 226.698 10.9603 227.017 11.3242C227.244 11.5516 227.562 11.5516 227.79 11.3242C228.017 11.0967 228.199 11.0512 228.472 11.0967C228.654 11.1422 228.836 11.1422 229.018 11.2332C229.609 11.4152 230.201 11.5516 230.838 11.5516C230.974 11.5516 231.111 11.5971 231.247 11.6426C231.338 11.6881 231.429 11.8245 231.338 11.9155C231.292 11.961 231.247 12.052 231.201 12.052C230.747 12.052 230.246 12.0065 229.791 12.0065C229.746 12.0065 229.655 12.052 229.609 12.052L229.564 12.143C229.655 12.3249 229.791 12.5069 230.019 12.5978C230.383 12.7343 230.792 12.8253 231.201 12.8253C231.201 12.9163 231.247 13.0527 231.247 13.1437C231.292 13.4166 231.429 13.5986 231.702 13.6896C231.929 13.7351 232.202 13.826 232.384 13.9625C232.521 14.0535 232.748 14.099 232.885 14.0535C233.521 13.8715 234.158 13.9625 234.795 14.1899C234.886 14.2354 235.023 14.2809 235.113 14.2354C235.887 14.1899 236.615 14.5084 237.342 14.6448C237.661 14.7358 237.979 14.7813 238.298 14.7358C238.98 14.6448 239.662 14.6903 240.345 14.8268C240.572 14.8723 240.845 14.8723 241.118 14.8723C241.3 14.9177 241.482 14.9177 241.618 15.0087C241.937 15.1907 242.21 15.2362 242.574 15.2362C243.301 15.3271 244.029 15.4181 244.757 15.5091C244.984 15.5546 245.166 15.6001 245.348 15.7365C245.394 15.782 245.394 15.873 245.394 15.9185C245.394 15.9185 245.348 15.964 245.303 15.964C245.985 15.691 245.667 15.6001 245.394 15.4181ZM182.938 9.00428L182.938 8.95879C182.938 8.95879 182.938 9.04976 182.938 9.00428C182.984 9.00428 182.984 8.95879 183.029 8.95879L183.029 9.00428C182.984 9.00428 182.984 9.00428 182.938 9.00428ZM100.423 7.63962C100.423 7.68511 100.423 7.68511 100.423 7.7306C100.423 7.77609 100.423 7.77609 100.423 7.82158C100.423 7.7306 100.423 7.68511 100.423 7.63962ZM120.711 8.5039C120.711 8.54939 120.756 8.54939 120.756 8.59488C120.711 8.54939 120.711 8.54939 120.711 8.5039ZM240.072 16.1004C240.117 16.1459 240.163 16.1914 240.208 16.2369C240.208 16.2369 240.254 16.2824 240.299 16.2824C240.345 16.2824 240.345 16.2369 240.39 16.2369C240.345 16.1914 240.345 16.1459 240.299 16.1004C240.208 16.1004 240.117 16.1459 240.072 16.1004ZM83.9561 9.82306C84.047 9.82306 84.138 9.82306 84.229 9.82306C84.2745 9.82306 84.32 9.82306 84.32 9.77757C84.32 9.77757 84.3655 9.73208 84.3655 9.68659C84.32 9.68659 84.229 9.59562 84.1835 9.64111C84.0925 9.6866 84.0016 9.73208 83.9561 9.82306ZM115.388 7.18474C115.525 7.3667 115.752 7.41218 115.98 7.41218C116.071 7.41218 116.207 7.41218 116.207 7.27572C116.253 7.18474 116.116 7.09377 115.98 7.09377C115.798 7.13926 115.57 7.18474 115.388 7.18474ZM226.016 11.4606C226.198 11.6426 226.38 11.7791 226.653 11.7791C226.88 11.7791 227.062 11.7791 227.29 11.7791C227.38 11.7791 227.426 11.7336 227.335 11.5971C226.926 11.5516 226.471 11.5061 226.016 11.4606C225.925 11.4606 225.879 11.4606 225.788 11.4606C225.743 11.4606 225.697 11.4606 225.697 11.4606L225.652 11.5061C225.697 11.5061 225.788 11.5516 225.834 11.5061C225.879 11.5061 225.97 11.4606 226.016 11.4606ZM225.152 12.052C225.197 12.143 225.243 12.2339 225.334 12.3249C225.424 12.4159 225.561 12.5524 225.697 12.5524C226.243 12.6433 226.744 12.7343 227.29 12.6433C227.335 12.6433 227.38 12.5524 227.38 12.4614C227.38 12.4159 227.29 12.3249 227.244 12.3249C227.153 12.3249 227.017 12.3249 226.926 12.3249C226.334 12.4159 225.788 12.3249 225.152 12.052C224.833 12.052 224.515 12.0975 224.196 12.0975C224.105 12.0975 224.06 12.0975 223.969 12.0975C223.923 12.143 223.878 12.1885 223.878 12.2339C223.923 12.2794 223.969 12.3249 224.06 12.3249C224.424 12.4159 224.788 12.2339 225.152 12.052ZM173.159 9.2772C173.568 9.59562 174.023 9.55013 174.523 9.55013C174.569 9.45916 174.523 9.41367 174.432 9.36818C174.296 9.27721 174.205 9.18623 174.25 9.00428C174.296 8.86781 174.432 8.77683 174.569 8.73135C174.66 8.68586 174.796 8.68586 174.887 8.68586C175.024 8.68586 175.16 8.68586 175.342 8.68586C175.524 8.68586 175.615 8.54939 175.524 8.50391C175.478 8.45842 175.387 8.41293 175.342 8.41293C174.842 8.5039 174.341 8.50391 173.841 8.50391C173.613 8.50391 173.568 8.59488 173.659 8.82232C173.75 9.04976 173.704 9.18623 173.477 9.23172C173.386 9.2772 173.249 9.2772 173.159 9.2772C173.113 9.2772 173.113 9.2772 173.068 9.2772C173.113 9.2772 173.159 9.2772 173.159 9.2772ZM222.331 11.7791C222.013 11.87 221.74 11.961 221.422 12.0975L221.422 12.1885C221.785 12.3704 222.149 12.4159 222.559 12.3704C222.604 12.3704 222.604 12.3249 222.65 12.2794C222.65 12.2339 222.695 12.1885 222.65 12.1885C222.513 12.0065 222.422 11.87 222.331 11.7791C222.741 11.5516 223.196 11.5061 223.696 11.5516C223.923 11.5516 224.105 11.5971 224.333 11.5971C224.378 11.5971 224.424 11.5061 224.469 11.4606C224.469 11.4606 224.424 11.4152 224.424 11.3697C224.151 11.2332 223.923 11.0967 223.65 10.9603C223.15 11.1877 222.604 11.1422 222.058 11.1422C221.831 11.1422 221.649 11.0967 221.422 11.0967C221.376 11.0967 221.285 11.1422 221.24 11.1877C221.24 11.1877 221.194 11.2332 221.194 11.2787C221.194 11.3242 221.24 11.3697 221.24 11.3697C221.422 11.4152 221.603 11.4152 221.785 11.4152C221.967 11.3697 222.195 11.5061 222.331 11.7791ZM229.064 11.87C229.064 12.0065 229.018 12.143 229.018 12.2794C228.973 12.4159 228.927 12.5524 228.745 12.5978C228.654 12.6433 228.518 12.6888 228.609 12.8253C229.473 13.0527 230.383 13.1437 231.292 13.0527C231.383 13.0527 231.429 12.9618 231.429 12.9163C231.429 12.8708 231.338 12.7798 231.292 12.7798C231.201 12.7343 231.065 12.7343 230.974 12.7343C230.656 12.8253 230.337 12.7343 230.019 12.5978C229.837 12.5069 229.746 12.3704 229.7 12.1885C229.655 11.9155 229.518 11.8245 229.246 11.8245C229.2 11.87 229.109 11.87 229.064 11.87ZM48.4752 8.04902C47.6564 8.41292 47.52 8.45841 46.7922 8.5039C46.0644 8.5039 45.3365 8.54939 44.6087 8.54939C43.9264 8.54939 43.2441 8.54939 42.5618 8.54939C42.5163 8.54939 42.4708 8.59488 42.4708 8.59488C42.4253 8.64036 42.4708 8.73134 42.5618 8.73134C43.0621 8.73134 43.5625 8.68585 44.0629 8.73134C45.2911 8.73134 46.5193 8.77683 47.7474 8.73134C48.1113 8.73134 48.4752 8.68585 48.8392 8.73134C49.8399 8.82232 50.8861 8.73134 51.8869 8.68585C52.2508 8.68585 52.6147 8.59488 52.9331 8.5039C52.9331 8.5039 52.9786 8.45841 52.9786 8.41292C52.9786 8.36743 52.9331 8.36743 52.9331 8.32195C52.4327 8.27646 51.9323 8.23097 51.432 8.18548C50.9316 8.18548 50.4312 8.27646 49.9309 8.18548C49.4305 8.32195 48.9301 8.23097 48.4752 8.04902ZM37.8765 8.5039C37.0577 8.5039 36.1934 8.5039 35.3746 8.5039C35.2837 8.5039 35.1472 8.54939 35.0562 8.54939C35.0562 8.54939 35.0107 8.59487 35.0107 8.64036C35.0107 8.68585 35.0107 8.73134 35.0562 8.73134C35.1927 8.77683 35.3291 8.82232 35.4656 8.82232C36.4664 8.82232 37.4216 8.86781 38.4223 8.86781C39.0592 8.86781 39.7415 8.82232 40.3783 8.82232C40.4693 8.82232 40.5603 8.77683 40.6513 8.73134C40.6513 8.73134 40.6968 8.64036 40.6513 8.64036C40.5603 8.59488 40.4693 8.5039 40.3783 8.5039C39.5596 8.5039 38.6953 8.5039 37.8765 8.5039ZM42.2434 7.86706C43.0167 7.82157 43.6535 7.95804 44.2903 7.91255C44.6542 7.91255 45.0181 7.91255 45.382 7.91255C46.3828 7.91255 47.429 7.86706 48.4298 7.86706C48.5662 7.86706 48.6572 7.7306 48.6117 7.68511C48.5662 7.63962 48.5207 7.54865 48.4752 7.54865C47.9749 7.45767 47.4745 7.41218 46.9741 7.45767C46.3828 7.54865 45.746 7.63962 45.1546 7.50316C45.0636 7.50316 45.0181 7.50316 44.9272 7.50316C44.3358 7.63962 43.699 7.59413 43.0621 7.59413C42.8347 7.59413 42.5618 7.59413 42.2434 7.86706ZM233.976 14.6903C234.204 14.6903 234.477 14.7358 234.704 14.7358C235.614 14.8268 236.524 14.9177 237.388 15.1907C237.888 15.3726 238.389 15.3271 238.889 15.1452C238.934 15.1452 238.98 15.0997 238.934 15.0542C238.934 15.0087 238.934 14.9177 238.889 14.8723C238.616 14.7358 238.252 14.6903 237.934 14.6448C236.797 14.5993 235.614 14.5084 234.477 14.4629C234.34 14.4629 234.204 14.4629 234.067 14.5084C233.976 14.5538 233.931 14.5993 233.976 14.6903ZM55.6624 7.54865C56.0718 7.59413 56.2992 7.63962 56.5267 7.63962C57.8003 7.63962 59.074 7.59413 60.3022 7.59413C60.4386 7.59413 60.5751 7.59413 60.7116 7.54865C60.7571 7.54865 60.8481 7.50316 60.8935 7.45767C60.8935 7.45767 60.939 7.36669 60.8935 7.36669C60.8026 7.3212 60.7116 7.23023 60.6206 7.23023C59.5289 7.32121 58.4827 7.13925 57.3909 7.27572C56.8451 7.23023 56.3447 7.32121 55.6624 7.54865ZM62.5311 7.36669C62.895 7.50316 63.2589 7.50316 63.6228 7.45767C64.76 7.41218 65.9427 7.36669 67.0799 7.32121C67.1709 7.32121 67.3074 7.27572 67.3983 7.27572C67.4893 7.27572 67.5348 7.18474 67.4893 7.13925C67.4893 7.09376 67.4438 7.09376 67.3983 7.09376C66.625 7.09376 65.8972 7.13925 65.1239 7.00279C64.8965 6.9573 64.6236 6.9573 64.3506 6.9573C63.7138 6.9573 63.3954 7.00279 62.5311 7.36669ZM205.91 10.6873C205.728 10.6873 205.546 10.6873 205.364 10.6873C205.319 10.6873 205.228 10.7783 205.228 10.8238C205.228 10.8693 205.273 10.9603 205.319 10.9603C205.91 11.1422 206.501 11.1877 207.138 11.1422C207.411 11.1422 207.639 11.0967 207.912 11.0967C208.412 11.1422 208.912 11.1877 209.413 11.2332C209.686 11.2332 210.004 11.2332 210.277 11.2332C210.322 11.2332 210.368 11.1877 210.368 11.1877C210.368 11.1422 210.322 11.0512 210.277 11.0058C210.095 10.8693 209.868 10.8693 209.64 10.8693C209.094 10.8693 208.548 10.8238 208.002 10.8693C207.457 10.9148 206.956 10.6873 206.41 10.6419C206.274 10.6873 206.092 10.6873 205.91 10.6873ZM216.964 11.5516C216.827 11.5516 216.736 11.5516 216.6 11.5971C216.554 11.5971 216.509 11.6426 216.418 11.6881C216.463 11.7336 216.509 11.7791 216.6 11.8245C216.736 11.87 216.873 11.9155 217.009 11.9155C217.919 12.0065 218.829 12.052 219.738 12.0975C219.784 12.0975 219.829 12.0975 219.829 12.052C219.875 12.052 219.875 12.0065 219.875 11.961C219.875 11.9155 219.875 11.87 219.829 11.87C219.42 11.8245 218.965 11.7336 218.556 11.6881C218.055 11.6426 217.51 11.5971 216.964 11.5516ZM163.288 6.72986C163.015 6.72986 162.696 6.77535 162.423 6.77535C162.378 6.77535 162.287 6.86633 162.287 6.91182C162.287 6.9573 162.332 7.09377 162.378 7.09377C163.015 7.23023 163.651 7.27572 164.288 7.18475C164.334 7.18475 164.425 7.09377 164.425 7.04828C164.425 7.00279 164.379 6.91182 164.334 6.86633C164.015 6.72986 163.651 6.72986 163.288 6.72986ZM238.207 16.1914C238.298 16.1914 238.343 16.1914 238.389 16.1914C238.434 16.1459 238.48 16.1004 238.525 16.055C238.48 16.0095 238.434 15.9185 238.389 15.9185C237.979 15.873 237.524 15.782 237.115 15.7365C236.751 15.7365 236.387 15.691 236.069 15.6001C235.796 15.5546 235.523 15.5546 235.204 15.5091C235.204 15.5091 235.159 15.5546 235.159 15.6001C235.159 15.6456 235.204 15.691 235.204 15.691C235.295 15.7365 235.432 15.7365 235.523 15.782C236.205 15.8275 236.888 15.9185 237.524 16.1004C237.752 16.1459 238.025 16.1459 238.207 16.1914ZM160.513 9.2772L160.558 9.32269C161.423 9.36818 162.287 9.41367 163.151 9.41367C163.651 9.41367 164.152 9.36818 164.743 9.32269C163.015 9.04976 162.833 9.14074 160.513 9.2772ZM52.2963 7.54865C51.4775 7.27572 50.7497 7.41218 50.0219 7.59413C49.9764 7.59413 49.9764 7.63962 49.9764 7.68511C49.9764 7.7306 49.9764 7.77609 50.0219 7.77609C50.1583 7.82158 50.2948 7.86706 50.4312 7.86706C51.0681 7.86706 51.6594 7.7306 52.2963 7.54865ZM108.292 9.00427C108.11 8.9133 107.928 8.82232 107.701 8.73134C107.519 8.64037 107.337 8.68585 107.201 8.77683C107.064 8.86781 107.019 9.04976 107.11 9.14074C107.246 9.2772 107.337 9.41367 107.292 9.59562C107.292 9.73208 107.519 9.82306 107.61 9.77757C107.837 9.59562 108.019 9.41367 108.247 9.23171C108.247 9.14074 108.247 9.09525 108.292 9.00427ZM218.465 11.1422C218.419 11.1422 218.601 11.1422 218.783 11.0967C218.829 11.0967 218.92 11.0058 218.92 10.9603C218.92 10.9148 218.92 10.8238 218.874 10.7783C218.738 10.6419 218.556 10.5054 218.419 10.5964C217.964 10.7328 217.51 10.6873 217.055 10.7783C217.009 10.7783 217.009 10.8238 217.009 10.8693C217.009 10.9148 217.055 10.9603 217.055 10.9603C217.373 11.1422 217.782 11.1422 218.465 11.1422ZM219.602 13.3711C219.829 13.3257 220.057 13.3257 220.239 13.2802C220.284 13.2802 220.284 13.2347 220.284 13.1892C220.284 13.1437 220.239 13.0072 220.193 13.0072C219.738 12.9618 219.284 12.8708 218.829 12.8253C218.647 12.8253 218.465 12.8708 218.283 12.8708C218.192 12.8708 218.146 12.9163 218.146 13.0072C218.146 13.0527 218.237 13.1437 218.283 13.1437C218.783 13.2802 219.193 13.3257 219.602 13.3711ZM129.399 8.82232C129.581 8.82232 129.763 8.77683 129.945 8.73134C129.99 8.73134 130.081 8.64037 130.081 8.59488C130.127 8.5039 130.081 8.36744 130.036 8.27646C129.763 7.91256 129.08 8.09451 128.989 8.54939C128.989 8.59488 129.035 8.68586 129.08 8.73134C129.217 8.77683 129.308 8.77683 129.399 8.82232ZM210.14 10.2325C210.368 10.2779 210.55 10.1415 210.55 10.005C210.55 9.86855 210.55 9.73209 210.504 9.59562C210.368 9.36818 210.049 9.32269 209.868 9.45916C209.731 9.55014 209.731 9.86855 209.913 10.0505C209.958 10.1415 210.095 10.187 210.14 10.2325ZM113.16 9.82306C113.296 9.82306 113.569 9.77757 113.796 9.73208C113.842 9.73208 113.933 9.6866 113.978 9.64111C113.978 9.64111 113.978 9.59562 113.978 9.55013C113.978 9.50464 113.933 9.50464 113.887 9.45916C113.569 9.36818 113.25 9.32269 112.932 9.45916C112.841 9.50464 112.75 9.59562 112.705 9.64111C112.659 9.6866 112.796 9.82306 112.932 9.82306C112.978 9.82306 113.023 9.82306 113.16 9.82306ZM34.5558 7.59413C34.3739 7.63962 34.1919 7.63962 34.01 7.63962C33.919 7.63962 33.8735 7.68511 33.8735 7.77609C33.8735 7.82158 33.919 7.82157 33.9645 7.82157C34.2829 7.86706 34.6013 7.91255 34.9198 7.95804C35.0107 7.95804 35.1472 7.95804 35.2382 7.91255C35.2837 7.91255 35.3291 7.82158 35.4201 7.77609C35.3746 7.7306 35.3291 7.63962 35.2836 7.63962C35.0562 7.63962 34.8288 7.63962 34.5558 7.59413ZM119.209 8.04902C119.346 8.04902 119.437 8.04902 119.482 8.00353C119.528 7.95804 119.573 7.91255 119.573 7.82158L119.528 7.7306C119.3 7.59414 118.937 7.63963 118.755 7.82158L118.755 7.91255C118.891 8.00353 119.073 8.00353 119.209 8.04902ZM171.112 9.50465C171.248 9.45916 171.293 9.45916 171.384 9.45916C171.43 9.41367 171.475 9.36818 171.475 9.2772C171.475 9.2772 171.43 9.23172 171.43 9.18623C171.203 9.09525 170.975 9.09525 170.702 9.14074C170.611 9.14074 170.566 9.23172 170.611 9.2772C170.611 9.32269 170.657 9.32269 170.657 9.36818C170.839 9.45916 170.975 9.45916 171.112 9.50465ZM142.136 8.45842C142.09 8.41293 142.09 8.36744 142.09 8.36744C141.726 8.27646 141.317 8.27646 140.907 8.32195C140.816 8.32195 140.771 8.36744 140.816 8.45842C140.816 8.5039 140.862 8.5039 140.907 8.5039C141.317 8.64037 141.726 8.59488 142.136 8.45842ZM101.833 9.77757C101.696 9.77757 101.56 9.82306 101.469 9.82306C101.424 9.82306 101.378 9.86855 101.378 9.86855C101.333 9.91404 101.333 10.005 101.424 10.0505C101.515 10.096 101.605 10.187 101.696 10.2325C101.878 10.3234 102.106 10.2779 102.242 10.0505C102.288 10.005 102.242 9.86855 102.197 9.86855C102.06 9.82306 101.924 9.82306 101.833 9.77757ZM128.034 9.6866C128.262 9.6866 128.398 9.55013 128.444 9.36818C128.444 9.32269 128.398 9.23171 128.353 9.18623C128.171 9.09525 127.989 9.14074 127.852 9.23171C127.761 9.2772 127.761 9.45916 127.807 9.50464C127.898 9.59562 127.989 9.64111 128.034 9.6866ZM158.193 8.41293C158.147 8.36744 158.102 8.23097 158.102 8.23097C157.874 8.23097 157.693 8.27646 157.465 8.27646C157.42 8.27646 157.42 8.32195 157.42 8.36744C157.42 8.41293 157.42 8.45842 157.42 8.45842C157.647 8.68586 157.829 8.68586 158.102 8.54939C158.102 8.54939 158.147 8.45842 158.193 8.41293ZM185.531 7.68512C185.713 7.63963 185.85 7.63963 185.986 7.59414C186.077 7.59414 186.123 7.50316 186.077 7.41219C186.077 7.3667 186.032 7.3667 185.986 7.32121C185.713 7.23023 185.44 7.23023 185.167 7.41219L185.167 7.50316C185.304 7.59414 185.44 7.63963 185.531 7.68512ZM144.91 9.2772C145.365 9.32269 145.593 9.36818 145.82 9.41367C145.866 9.41367 145.911 9.36818 145.911 9.36818C145.911 9.2772 145.866 9.23171 145.82 9.23171C145.547 9.18623 145.274 9.14074 144.91 9.2772ZM183.939 9.86855C184.121 9.86855 184.212 9.86855 184.258 9.86855C184.303 9.86855 184.394 9.77758 184.44 9.73209C184.485 9.6866 184.349 9.55013 184.212 9.55013C183.985 9.55013 183.803 9.59562 183.575 9.59562C183.53 9.59562 183.484 9.64111 183.484 9.64111C183.53 9.6866 183.53 9.77758 183.621 9.77758C183.757 9.86855 183.894 9.86855 183.939 9.86855ZM148.959 7.50316C148.959 7.54865 148.959 7.54865 148.913 7.59414C149.05 7.59414 149.186 7.63963 149.323 7.59414C149.459 7.59414 149.596 7.63963 149.687 7.50316C149.459 7.50316 149.186 7.50316 148.959 7.50316ZM77.8152 10.1415C77.8152 10.096 77.8152 10.0505 77.7697 10.0505C77.6332 9.91404 77.4513 9.91404 77.3148 10.0505C77.2693 10.096 77.2693 10.187 77.2693 10.2325C77.4058 10.4599 77.6787 10.4599 77.7697 10.2325C77.8152 10.2325 77.8152 10.187 77.8152 10.1415ZM171.839 8.41293C171.839 8.27646 171.794 8.14 171.703 8.18549C171.657 8.18549 171.566 8.23098 171.521 8.27646C171.475 8.32195 171.43 8.41293 171.43 8.45842C171.384 8.54939 171.475 8.68586 171.566 8.68586C171.748 8.64037 171.839 8.59488 171.839 8.41293ZM150.596 8.36744C150.551 8.32195 150.505 8.23097 150.46 8.23097C150.323 8.23097 150.187 8.27646 150.05 8.27646C150.005 8.27646 149.96 8.32195 149.96 8.32195C149.96 8.36744 150.005 8.45842 150.005 8.5039C150.141 8.64037 150.323 8.64037 150.46 8.5039C150.551 8.5039 150.551 8.41293 150.596 8.36744ZM41.0607 7.7306C40.7422 7.68511 40.7422 7.68511 40.4693 7.77609C40.6513 7.77609 40.8332 7.86706 41.0607 7.7306ZM124.668 9.45916C124.668 9.41367 124.668 9.36818 124.623 9.32269C124.532 9.23171 124.441 9.18623 124.35 9.2772C124.304 9.32269 124.259 9.36818 124.259 9.45916C124.259 9.50464 124.35 9.59562 124.395 9.59562C124.486 9.55013 124.577 9.50464 124.668 9.45916ZM210.095 12.6433C210.14 12.6433 210.186 12.5978 210.186 12.5978C210.186 12.5524 210.186 12.5069 210.186 12.5069C210.049 12.4614 209.958 12.3704 209.822 12.3249C209.777 12.3249 209.731 12.3249 209.731 12.3249C209.731 12.3704 209.731 12.4614 209.731 12.5069C209.822 12.6433 209.958 12.6888 210.095 12.6433ZM151.87 9.2772C152.052 9.2772 152.143 9.23172 152.143 9.14074C152.143 9.04976 152.097 9.00427 152.006 9.00427C151.915 9.00427 151.825 9.04976 151.779 9.14074C151.779 9.23172 151.825 9.2772 151.87 9.2772ZM136.404 8.41293C136.359 8.36744 136.268 8.27646 136.222 8.23097C136.131 8.18549 136.04 8.27646 135.949 8.36744C135.904 8.45841 135.949 8.59488 136.04 8.64037C136.222 8.68586 136.359 8.59488 136.404 8.41293ZM89.6876 10.0505C89.7331 10.0505 89.7786 10.0505 89.7786 10.0505C89.915 10.005 90.006 9.86855 90.0515 9.73208C90.0515 9.68659 90.006 9.59562 89.9605 9.55013L89.8695 9.55013C89.6876 9.64111 89.5966 9.73208 89.6421 9.95952C89.6421 9.95952 89.6876 10.005 89.6876 10.0505ZM134.039 11.5516C134.039 11.4606 133.993 11.4152 133.902 11.4152C133.811 11.4152 133.766 11.4606 133.766 11.5516C133.766 11.6426 133.811 11.6881 133.902 11.6881C133.993 11.6881 134.039 11.6426 134.039 11.5516ZM233.43 15.5091C233.476 15.5091 233.567 15.5091 233.612 15.5091C233.658 15.5091 233.703 15.4181 233.703 15.3726L233.658 15.3271C233.521 15.3271 233.385 15.2817 233.248 15.3271C233.203 15.3271 233.157 15.4181 233.112 15.4636C233.157 15.4636 233.157 15.5091 233.203 15.5091C233.294 15.5091 233.339 15.5091 233.43 15.5091ZM189.625 7.50316C189.534 7.50316 189.398 7.63963 189.443 7.68512C189.489 7.73061 189.534 7.77609 189.625 7.77609C189.671 7.77609 189.716 7.77609 189.716 7.77609C189.762 7.73061 189.853 7.68512 189.853 7.63963C189.853 7.59414 189.807 7.54865 189.716 7.50316C189.716 7.50316 189.671 7.50316 189.625 7.50316ZM155.6 8.5039C155.691 8.5039 155.737 8.5039 155.737 8.5039C155.827 8.5039 155.873 8.45842 155.827 8.41293C155.827 8.41293 155.782 8.36744 155.737 8.36744C155.691 8.36744 155.646 8.36744 155.646 8.36744C155.555 8.36744 155.464 8.41293 155.373 8.45842C155.464 8.41293 155.555 8.45842 155.6 8.5039ZM143.819 7.63963C143.819 7.59414 143.819 7.54865 143.819 7.50316C143.728 7.50316 143.637 7.45767 143.546 7.45767C143.5 7.45767 143.455 7.50316 143.455 7.50316C143.5 7.54865 143.5 7.63963 143.546 7.63963C143.637 7.68511 143.728 7.63963 143.819 7.63963ZM195.539 10.3234C195.584 10.3234 195.675 10.3689 195.766 10.3689C195.857 10.3689 195.948 10.2325 195.948 10.1415C195.903 10.0505 195.766 10.005 195.675 10.0505C195.539 10.096 195.448 10.187 195.539 10.3234ZM211.141 10.6419C211.232 10.6419 211.369 10.6419 211.414 10.5964C211.46 10.5964 211.46 10.5054 211.505 10.4144C211.46 10.3689 211.369 10.3234 211.323 10.3234C211.278 10.3234 211.187 10.3689 211.141 10.4144C211.096 10.4599 211.141 10.5509 211.141 10.6419ZM214.689 11.5061C214.689 11.4606 214.689 11.4152 214.644 11.4152C214.507 11.3242 214.371 11.3242 214.234 11.4152C214.234 11.4152 214.189 11.5061 214.234 11.5061C214.28 11.5971 214.416 11.6426 214.507 11.5971C214.598 11.5971 214.644 11.5061 214.689 11.5061ZM91.5526 9.73208C91.5526 9.68659 91.5071 9.64111 91.5071 9.64111C91.4161 9.64111 91.3252 9.64111 91.1887 9.64111C91.1432 9.64111 91.0977 9.68659 91.0977 9.68659C91.1432 9.73208 91.1432 9.82306 91.1887 9.82306C91.4162 9.86855 91.5981 9.82306 91.5526 9.73208ZM80.6809 8.64037C80.7264 8.59488 80.8174 8.54939 80.8174 8.5039C80.8629 8.41292 80.7264 8.32195 80.6354 8.32195C80.5899 8.32195 80.499 8.41292 80.499 8.45841C80.4535 8.59488 80.5444 8.68585 80.6809 8.64037ZM100.514 9.32269C100.559 9.32269 100.559 9.36818 100.605 9.36818C100.696 9.36818 100.741 9.36818 100.832 9.32269C100.878 9.32269 100.878 9.2772 100.878 9.23171C100.878 9.14074 100.741 9.09525 100.605 9.14074C100.514 9.18623 100.468 9.23171 100.514 9.32269ZM200.679 10.6419C200.77 10.6419 200.815 10.6419 200.815 10.5509C200.815 10.5054 200.77 10.5054 200.724 10.5054C200.679 10.5054 200.588 10.5054 200.542 10.5509C200.497 10.5964 200.588 10.6419 200.679 10.6419ZM85.0023 10.4599C85.0933 10.4599 85.1388 10.4144 85.1388 10.3234C85.0933 10.2779 85.0478 10.2325 84.9568 10.2325C84.9113 10.2325 84.8203 10.2779 84.7749 10.3234C84.7749 10.3234 84.7749 10.4144 84.8204 10.4144C84.8658 10.4599 84.9113 10.4599 85.0023 10.4599ZM186.623 9.95953C186.623 9.91404 186.669 9.86855 186.669 9.77758C186.669 9.77758 186.623 9.73209 186.578 9.73209C186.532 9.77758 186.487 9.82306 186.487 9.86855C186.487 9.95953 186.532 10.005 186.623 9.95953ZM148.822 9.32269C148.868 9.32269 148.913 9.2772 149.004 9.2772C148.959 9.23171 148.959 9.18623 148.959 9.18623C148.913 9.18623 148.822 9.23171 148.777 9.23171C148.777 9.2772 148.777 9.2772 148.822 9.32269ZM130.9 9.36818C130.945 9.36818 130.991 9.32269 130.991 9.32269C131.036 9.23171 130.945 9.18623 130.854 9.23171C130.809 9.23171 130.763 9.2772 130.718 9.32269C130.763 9.32269 130.763 9.36818 130.809 9.36818C130.809 9.36818 130.854 9.36818 130.9 9.36818ZM230.974 15.2362C231.02 15.2362 231.065 15.2362 231.065 15.2362C231.111 15.2362 231.111 15.1907 231.111 15.1907C231.065 15.1907 231.02 15.1452 230.929 15.1452L230.883 15.1907C230.929 15.1907 230.974 15.1907 230.974 15.2362ZM190.717 8.32195C190.717 8.36744 190.717 8.41293 190.762 8.41293C190.853 8.45842 190.899 8.41293 190.899 8.36744C190.899 8.32195 190.899 8.27646 190.853 8.27646C190.808 8.18549 190.762 8.23098 190.717 8.32195ZM203.181 10.6419C203.181 10.5964 203.181 10.5509 203.181 10.5509C203.135 10.5509 203.044 10.5509 202.999 10.5509C202.999 10.5964 202.999 10.6419 203.044 10.6419C203.09 10.7328 203.135 10.7328 203.181 10.6419ZM195.584 9.55014C195.63 9.55014 195.721 9.50465 195.766 9.50465C195.766 9.45916 195.721 9.36818 195.721 9.36818C195.675 9.36818 195.584 9.36818 195.584 9.41367C195.448 9.45916 195.493 9.50465 195.584 9.55014ZM194.174 10.187C194.22 10.187 194.265 10.1415 194.356 10.1415C194.356 10.096 194.356 10.0505 194.311 10.0505C194.265 10.0505 194.22 10.0505 194.129 10.096C194.174 10.1415 194.174 10.187 194.174 10.187ZM101.56 13.5076L101.515 13.4621L101.469 13.5531L101.56 13.5076ZM192.9 10.187C192.946 10.187 192.946 10.1415 192.991 10.1415C192.991 10.096 192.946 10.096 192.946 10.096C192.855 10.0505 192.809 10.096 192.855 10.187C192.809 10.187 192.855 10.187 192.9 10.187ZM190.808 7.82158C190.899 7.82158 190.944 7.77609 190.944 7.73061C190.944 7.68512 190.899 7.63963 190.899 7.63963C190.853 7.63963 190.808 7.68512 190.717 7.68512C190.762 7.73061 190.808 7.77609 190.808 7.82158ZM107.519 8.23097C107.564 8.23097 107.564 8.18548 107.61 8.18548C107.61 8.14 107.564 8.14 107.564 8.09451C107.473 8.04902 107.428 8.09451 107.473 8.18548C107.428 8.23097 107.473 8.23097 107.519 8.23097ZM109.111 9.14074C109.066 9.23171 109.111 9.2772 109.202 9.23171L109.202 9.14074C109.157 9.14074 109.111 9.14074 109.111 9.14074ZM96.1014 9.64111L96.1014 9.73208L96.1924 9.6866L96.1014 9.64111ZM161.604 8.41293L161.65 8.45842C161.741 8.45842 161.786 8.41293 161.741 8.36744C161.741 8.36744 161.695 8.36744 161.65 8.36744C161.65 8.36744 161.604 8.36744 161.604 8.41293ZM176.752 9.50465C176.798 9.50465 176.798 9.50465 176.843 9.45916L176.798 9.41367C176.798 9.41367 176.752 9.41367 176.707 9.45916C176.707 9.50465 176.707 9.50465 176.752 9.50465ZM132.31 9.32269C132.401 9.32269 132.492 9.36818 132.492 9.18623C132.492 9.18623 132.401 9.18623 132.31 9.18623L132.265 9.23171C132.265 9.32269 132.31 9.32269 132.31 9.32269ZM223.969 13.5076L224.014 13.5531L224.06 13.5076L224.014 13.4621C224.014 13.4621 223.969 13.4621 223.969 13.5076ZM228.7 11.5061C228.745 11.5061 228.745 11.4606 228.791 11.4606L228.745 11.4152C228.745 11.4152 228.7 11.4152 228.654 11.4606C228.654 11.4606 228.654 11.4606 228.7 11.5061ZM219.466 14.1444C219.511 14.1444 219.511 14.099 219.557 14.099C219.557 14.0535 219.511 14.0535 219.511 14.008C219.42 13.9625 219.375 14.008 219.42 14.099C219.375 14.1444 219.42 14.1444 219.466 14.1444ZM69.5363 8.91329L69.6273 8.91329C69.6728 8.82232 69.6273 8.82232 69.5363 8.82232C69.4908 8.82232 69.4908 8.86781 69.4453 8.86781C69.4453 8.86781 69.4908 8.86781 69.5363 8.91329ZM54.3887 7.54865C54.3887 7.50316 54.3432 7.45767 54.3432 7.45767C54.2977 7.45767 54.2068 7.45767 54.1613 7.50316C54.1613 7.54865 54.2068 7.59413 54.2068 7.59413C54.2522 7.59413 54.2977 7.54865 54.3887 7.54865ZM111.795 8.04902C111.84 8.04902 111.84 8.09451 111.886 8.04902L111.931 8.00353C111.931 7.91256 111.84 7.91255 111.795 7.95804C111.749 7.95804 111.795 8.00353 111.795 8.04902ZM226.061 10.7783C226.016 10.7328 226.016 10.7328 225.97 10.7328C225.925 10.7328 225.925 10.7783 225.879 10.7783C225.925 10.8238 225.925 10.8238 225.97 10.8238C225.97 10.8238 226.016 10.8238 226.061 10.7783ZM117.253 7.04828C117.208 7.04828 117.208 7.00279 117.162 7.04828C117.072 7.09377 117.072 7.13925 117.162 7.13925C117.162 7.13925 117.208 7.13925 117.253 7.13925C117.253 7.09377 117.253 7.09377 117.253 7.04828ZM178.071 7.91256C178.026 7.91256 178.026 7.86707 177.98 7.86707C177.889 7.91256 177.889 7.95805 177.98 8.00353L178.071 8.00353C178.071 8.00353 178.071 7.95805 178.071 7.91256ZM229.109 14.9632L229.064 14.9177L229.064 14.9632L229.109 14.9632ZM130.582 7.77609L130.582 7.68511L130.491 7.7306L130.582 7.77609ZM229.655 14.3264L229.746 14.2809L229.7 14.2354L229.655 14.3264ZM122.439 11.87L122.485 11.9155L122.485 11.87L122.439 11.87ZM181.164 9.59562C181.21 9.59562 181.21 9.59562 181.255 9.55013C181.255 9.50465 181.255 9.45916 181.21 9.45916C181.21 9.45916 181.164 9.45916 181.119 9.50465C181.119 9.55013 181.119 9.55013 181.164 9.59562ZM165.153 8.41293L165.107 8.36744L165.062 8.41293L165.107 8.45842C165.107 8.45842 165.107 8.41293 165.153 8.41293ZM178.89 8.41293L178.845 8.36744C178.845 8.36744 178.799 8.36744 178.754 8.41293L178.799 8.45842C178.845 8.41293 178.89 8.41293 178.89 8.41293ZM139.77 9.32269L139.77 9.23171L139.679 9.2772L139.77 9.32269ZM197.085 11.6881C197.176 11.7336 197.222 11.6881 197.176 11.5971C197.176 11.5971 197.131 11.5971 197.085 11.5971C197.085 11.6426 197.085 11.6881 197.085 11.6881ZM204.773 9.95953L204.864 9.91404L204.818 9.86855L204.773 9.95953ZM105.699 8.23097C105.745 8.23097 105.745 8.18548 105.79 8.18548L105.745 8.14C105.745 8.14 105.699 8.18548 105.654 8.18548C105.654 8.18548 105.654 8.23097 105.699 8.23097ZM106.018 9.73208C106.018 9.6866 105.972 9.64111 105.972 9.64111C105.927 9.64111 105.881 9.6866 105.79 9.6866C105.79 9.73208 105.836 9.77757 105.836 9.77757C105.881 9.77757 105.927 9.73208 106.018 9.73208ZM241.436 16.2824L241.482 16.3279L241.527 16.2824L241.482 16.2369C241.482 16.2369 241.482 16.2369 241.436 16.2824ZM219.375 10.187C219.466 10.2325 219.511 10.187 219.466 10.096C219.466 10.096 219.42 10.096 219.375 10.096C219.329 10.096 219.375 10.1415 219.375 10.187ZM108.929 8.23097C108.975 8.23097 109.02 8.23097 109.02 8.18548C109.02 8.09451 109.02 8.09451 108.929 8.09451L108.884 8.14C108.884 8.18548 108.929 8.23097 108.929 8.23097ZM147.003 11.4606L146.957 11.4152C146.957 11.4152 146.912 11.4606 146.866 11.4606L146.912 11.5061C146.957 11.5061 147.003 11.5061 147.003 11.4606ZM100.15 8.32195C100.15 8.36744 100.15 8.36744 100.15 8.41293C100.195 8.41293 100.195 8.41293 100.241 8.41293C100.241 8.36744 100.241 8.32195 100.241 8.32195C100.241 8.32195 100.195 8.32195 100.15 8.32195ZM162.514 8.27646C162.56 8.27646 162.605 8.27646 162.605 8.23097C162.605 8.23097 162.605 8.18549 162.56 8.14C162.514 8.14 162.469 8.14 162.469 8.18549C162.514 8.23097 162.514 8.27646 162.514 8.27646ZM155.373 7.54865L155.373 7.45767L155.282 7.50316L155.373 7.54865ZM65.5788 9.09525L65.5788 9.00427L65.4879 9.04976L65.5788 9.09525ZM84.7749 8.86781L84.7749 8.82232L84.6839 8.82232L84.7749 8.86781ZM214.871 9.95953C214.917 9.95953 214.917 9.95953 214.962 9.91404L214.917 9.86855C214.917 9.86855 214.871 9.86855 214.871 9.91404C214.826 9.91404 214.871 9.95953 214.871 9.95953ZM214.052 10.5509L214.052 10.5964L214.098 10.5509L214.052 10.5509Z" fill="white"/>
<path d="M103.243 5.77461C103.834 5.68363 104.335 5.68363 104.835 5.54717C104.972 5.50168 105.108 5.50168 105.245 5.50168C105.972 5.54717 106.7 5.45619 107.428 5.36521C107.519 5.36521 107.564 5.36521 107.655 5.36521C107.701 5.36521 107.792 5.4107 107.837 5.45619C107.928 5.59265 107.837 5.63814 107.746 5.68363C107.701 5.72912 107.61 5.77461 107.61 5.8201C107.61 5.95656 107.746 5.95656 107.837 6.00205C108.065 6.04754 108.338 6.09302 108.611 6.04754C109.202 5.95656 109.748 6.00205 110.339 6.00205C110.43 6.00205 110.476 6.00205 110.567 6.04754C110.612 6.09303 110.658 6.13851 110.703 6.22949L110.658 6.32047C110.203 6.50242 109.702 6.63888 109.202 6.50242C108.793 6.41144 108.429 6.41144 108.019 6.41144C107.246 6.41144 106.427 6.36595 105.654 6.36595C105.654 6.36595 105.608 6.27498 105.654 6.27498C105.881 6.13851 106.154 6.27498 106.382 6.184C106.473 6.13851 106.518 6.09302 106.473 6.04754C106.473 6.00205 106.427 6.00205 106.382 6.00205C105.836 5.95656 105.29 5.95656 104.744 5.95656C104.198 5.8201 103.743 5.8201 103.243 5.77461Z" fill="white"/>
<path d="M92.5988 6.77535C91.6891 6.77535 90.7793 6.77535 89.8695 6.77535C89.5056 6.77535 89.1417 6.82084 88.8233 7.00279C88.6414 7.09377 88.4594 7.09377 88.2775 7.04828C88.0045 7.00279 87.8226 6.86632 87.8681 6.77535C87.959 6.63888 88.0955 6.5934 88.232 6.5934C88.6414 6.5934 89.0508 6.54791 89.4147 6.5934C89.915 6.63888 90.4154 6.63888 90.9613 6.5934C91.1887 6.5934 91.4161 6.54791 91.5981 6.5934C92.1894 6.63888 92.7353 6.5934 93.3266 6.50242C94.0999 6.41144 94.8278 6.45693 95.6011 6.45693C95.692 6.45693 95.7375 6.50242 95.8285 6.50242C95.874 6.50242 95.874 6.54791 95.9195 6.5934C95.965 6.68437 95.9195 6.77535 95.874 6.77535C95.6465 6.82084 95.3736 6.86632 95.1007 6.86632C94.4639 6.77535 93.7815 6.82084 93.1447 6.86632C92.9627 6.77535 92.7808 6.77535 92.5988 6.77535Z" fill="white"/>
<path d="M95.1462 5.8201C95.1007 5.8201 95.1007 5.86558 95.0552 5.86558C94.6458 5.91107 94.1909 5.95656 93.7815 6.04754C93.6906 6.04754 93.6451 6.09302 93.5541 6.09302C92.5988 6.09302 91.6891 6.184 90.7338 6.184C90.5519 6.184 90.3699 6.13851 90.2334 6.00205C90.2334 6.00205 90.188 5.95656 90.2334 5.91107C90.2334 5.86558 90.2789 5.86558 90.2789 5.8201C90.3244 5.77461 90.3244 5.77461 90.3699 5.77461C91.9165 5.68363 93.4631 5.59265 95.0552 5.68363C95.1007 5.68363 95.1007 5.72912 95.1462 5.72912C95.1007 5.77461 95.1007 5.77461 95.1462 5.8201Z" fill="white"/>
<path d="M181.119 7.13926C181.028 7.13926 180.801 7.13926 180.619 7.09377C180.573 7.09377 180.528 7.00279 180.528 6.91182C180.528 6.86633 180.619 6.77535 180.664 6.77535C181.028 6.77535 181.392 6.77535 181.71 6.82084C181.756 6.82084 181.801 6.91182 181.801 6.95731C181.801 7.00279 181.71 7.09377 181.665 7.09377C181.483 7.13926 181.346 7.13926 181.119 7.13926Z" fill="white"/>
<path d="M100.787 5.86558C100.65 5.86558 100.514 5.86558 100.377 5.86558C100.332 5.86558 100.286 5.8201 100.241 5.77461C100.241 5.72912 100.286 5.72912 100.286 5.68363C100.696 5.50168 101.151 5.45619 101.651 5.50168C101.696 5.50168 101.742 5.54717 101.742 5.54717C101.742 5.59265 101.696 5.68363 101.651 5.68363C101.378 5.77461 101.105 5.8201 100.787 5.86558Z" fill="white"/>
<path d="M22.9108 7.3212C22.6379 7.45767 22.4105 7.41218 22.183 7.41218C21.7282 7.36669 21.2278 7.41218 20.7729 7.27572C20.7274 7.27572 20.7274 7.23023 20.7274 7.18474C20.7274 7.13925 20.7729 7.09376 20.7729 7.09376C21.2278 7.13925 21.6827 7.18474 22.183 7.13925C22.456 7.13925 22.6379 7.18474 22.9108 7.3212Z" fill="white"/>
<path d="M97.6935 5.68363C97.648 5.72912 97.648 5.77461 97.6025 5.8201C97.3751 6.04754 97.1022 6.09302 96.7838 6.00205C96.6928 5.95656 96.5563 5.8201 96.6018 5.77461C96.6473 5.72912 96.6928 5.63814 96.7383 5.63814C96.9657 5.54717 97.2386 5.45619 97.4661 5.50168C97.5571 5.50168 97.648 5.63814 97.6935 5.68363Z" fill="white"/>
<path d="M177.07 6.9573C176.57 6.91182 176.343 7.09377 176.07 6.91182C176.024 6.91182 176.024 6.86633 176.024 6.82084C176.024 6.77535 176.024 6.77535 176.07 6.72986C176.07 6.68438 176.115 6.68438 176.161 6.68438C176.661 6.68438 177.161 6.68438 177.662 6.72986C177.707 6.72986 177.753 6.82084 177.798 6.86633C177.753 6.86633 177.753 6.91182 177.707 6.91182C177.389 6.9573 177.116 6.9573 177.07 6.9573Z" fill="white"/>
<path d="M211.642 8.27647C212.051 8.27647 212.415 8.27647 212.824 8.27647C213.052 8.27647 213.234 8.36744 213.37 8.54939C213.416 8.59488 213.37 8.68586 213.325 8.73135C213.279 8.77684 213.188 8.82232 213.143 8.82232C212.733 8.59488 212.278 8.59488 211.824 8.41293C211.778 8.36744 211.733 8.32195 211.642 8.27647Z" fill="white"/>
<path d="M118.618 5.45619C118.527 5.4107 118.345 5.36521 118.163 5.31973C118.118 5.31973 118.118 5.27424 118.118 5.22875C118.163 5.18326 118.163 5.09228 118.209 5.0468C118.436 4.95582 118.618 4.95582 118.8 5.09228C118.846 5.13777 118.891 5.18326 118.891 5.27424C118.891 5.31973 118.8 5.36521 118.755 5.36521C118.8 5.45619 118.755 5.45619 118.618 5.45619Z" fill="white"/>
<path d="M253.081 17.3741C253.536 17.3286 253.9 17.4196 254.264 17.5561C253.809 17.647 253.809 17.647 253.081 17.3741Z" fill="white"/>
<path d="M127.215 5.72912C127.625 5.72912 127.989 5.68363 128.353 5.68363C128.444 5.68363 128.489 5.72912 128.489 5.8201C128.489 5.86559 128.444 5.86558 128.398 5.86558C127.989 5.91107 127.625 5.86559 127.215 5.72912Z" fill="white"/>
<path d="M187.123 6.22949C187.669 6.09303 188.033 6.04754 188.397 6.18401C187.942 6.36596 187.942 6.36596 187.123 6.22949Z" fill="white"/>
<path d="M191.035 6.41145C190.49 6.54791 190.49 6.54791 190.035 6.45693C190.035 6.45693 189.989 6.41145 190.035 6.36596C190.035 6.32047 190.08 6.32047 190.126 6.32047C190.399 6.22949 190.717 6.32047 191.035 6.41145Z" fill="white"/>
<path d="M102.697 6.50242C102.606 6.50242 102.47 6.45693 102.379 6.45693C102.333 6.45693 102.288 6.41144 102.288 6.41144C102.288 6.36595 102.333 6.27498 102.379 6.22949C102.561 6.09302 102.788 6.13851 103.016 6.184C103.061 6.184 103.152 6.27498 103.152 6.32047C103.152 6.36595 103.107 6.45693 103.016 6.45693C102.879 6.50242 102.788 6.50242 102.697 6.50242Z" fill="white"/>
<path d="M127.079 4.86484C127.443 4.91033 127.807 4.81936 128.125 5.0468C127.579 5.22875 127.579 5.22875 127.079 4.86484Z" fill="white"/>
<path d="M124.304 5.8201C124.623 5.72912 124.668 5.68363 124.759 5.68363C124.85 5.68363 124.986 5.68363 125.077 5.68363C125.259 5.68363 125.441 5.72912 125.669 5.8201C125.305 5.8201 124.941 5.8201 124.304 5.8201Z" fill="white"/>
<path d="M99.786 6.50242C100.195 6.22949 100.423 6.184 100.696 6.32047L100.696 6.41144C100.423 6.54791 100.104 6.41144 99.786 6.50242Z" fill="white"/>
<path d="M211.05 8.59488C210.55 8.68586 210.14 8.45842 209.64 8.45842C209.595 8.45842 209.549 8.45842 209.549 8.45842L209.549 8.41293C210.049 8.32195 210.55 8.50391 211.05 8.59488Z" fill="white"/>
<path d="M165.926 5.91107C165.789 5.91107 165.653 5.8201 165.698 5.77461C165.744 5.72912 165.789 5.63814 165.835 5.63814C165.926 5.59266 166.062 5.59266 166.153 5.59266C166.199 5.59266 166.244 5.59266 166.244 5.63814C166.29 5.63814 166.29 5.68363 166.335 5.72912C166.381 5.8201 166.335 5.86559 166.244 5.91107C166.199 5.91107 166.199 5.95656 166.153 5.95656C166.062 5.91108 166.017 5.91107 165.926 5.91107Z" fill="white"/>
<path d="M113.705 6.00205C113.478 6.13851 113.251 6.184 113.023 6.184C113.023 6.184 112.978 6.13851 112.978 6.09303C112.978 6.04754 112.978 6.00205 113.023 6.00205C113.251 5.95656 113.478 5.91107 113.705 6.00205Z" fill="white"/>
<path d="M161.559 4.86485C161.877 4.81936 162.15 4.77387 162.423 4.86485C162.378 4.91033 162.287 4.95582 162.241 4.95582C162.014 4.95582 161.786 5.00131 161.559 4.86485Z" fill="white"/>
<path d="M207.548 8.41293C207.502 8.36744 207.457 8.36744 207.411 8.32195C207.457 8.27646 207.502 8.23098 207.548 8.18549C207.684 8.14 207.821 8.27646 207.73 8.32195C207.684 8.41293 207.639 8.41293 207.548 8.41293Z" fill="white"/>
<path d="M196.994 7.50316C196.721 7.59414 196.494 7.77609 196.176 7.68512C196.13 7.68512 196.13 7.63963 196.13 7.59414C196.13 7.54865 196.13 7.50316 196.176 7.50316C196.448 7.41219 196.721 7.54865 196.994 7.50316Z" fill="white"/>
<path d="M184.758 6.32047C184.667 6.32047 184.622 6.27498 184.622 6.18401C184.622 6.13852 184.667 6.13852 184.713 6.13852C184.758 6.09303 184.849 6.09303 184.894 6.09303C184.94 6.09303 185.031 6.13852 185.076 6.18401C185.031 6.22949 184.985 6.32047 184.94 6.32047C184.894 6.32047 184.803 6.32047 184.758 6.32047Z" fill="white"/>
<path d="M131.173 6.72986C131.127 6.68437 131.082 6.68437 131.036 6.63889C131.082 6.63889 131.082 6.5934 131.127 6.5934C131.173 6.5934 131.264 6.5934 131.309 6.5934C131.4 6.5934 131.446 6.63888 131.4 6.68437C131.4 6.68437 131.355 6.72986 131.309 6.72986C131.309 6.72986 131.264 6.72986 131.173 6.72986Z" fill="white"/>
<path d="M86.1395 6.9573C86.094 6.91181 86.0031 6.91181 85.9576 6.86632C85.9121 6.82084 86.003 6.72986 86.1395 6.72986C86.185 6.72986 86.2305 6.72986 86.2305 6.72986C86.276 6.77535 86.3215 6.82084 86.3669 6.86632C86.3215 6.91181 86.276 6.91181 86.185 6.9573C86.185 6.9573 86.185 6.9573 86.1395 6.9573Z" fill="white"/>
<path d="M112.932 5.54717C112.705 5.54717 112.614 5.50168 112.705 5.45619C112.75 5.45619 112.841 5.45619 112.887 5.45619C112.932 5.45619 112.978 5.50168 113.023 5.54717C113.023 5.54717 112.978 5.54717 112.932 5.54717Z" fill="white"/>
<path d="M152.188 6.63889C152.143 6.68437 152.052 6.68437 152.006 6.68437C151.915 6.68437 151.87 6.5934 151.915 6.54791C151.961 6.50242 152.052 6.45693 152.097 6.50242C152.143 6.50242 152.143 6.5934 152.188 6.63889Z" fill="white"/>
<path d="M165.107 4.86485C164.971 4.86485 164.925 4.91033 164.88 4.91033C164.834 4.91033 164.789 4.91033 164.743 4.86485C164.789 4.86485 164.789 4.86485 164.834 4.86485C164.925 4.86485 164.971 4.86485 165.107 4.86485Z" fill="white"/>
<path d="M127.079 4.86484C126.942 4.95582 126.76 5.0468 126.624 5.09228C126.579 5.09228 126.533 5.0468 126.488 5.00131L126.533 4.91033C126.715 4.91033 126.897 4.91033 127.079 4.86484Z" fill="white"/>
<path d="M146.366 6.77535C146.457 6.68437 146.502 6.5934 146.593 6.54791C146.639 6.50242 146.73 6.50242 146.775 6.54791C146.821 6.5934 146.866 6.68437 146.866 6.72986C146.866 6.82084 146.821 6.9573 146.821 7.04828L146.866 7.00279C146.684 6.91181 146.548 6.82084 146.366 6.77535Z" fill="white"/>
<path d="M134.221 4.81936C134.266 4.86484 134.312 4.91033 134.357 4.95582C134.312 5.00131 134.266 5.0468 134.221 5.0468C134.084 5.0468 133.993 4.91033 134.039 4.86484C134.084 4.86484 134.13 4.86484 134.221 4.81936Z" fill="white"/>
<path d="M265.864 0.816396C265.773 0.816396 265.727 0.770908 265.727 0.72542C265.727 0.679932 265.864 0.679932 265.909 0.679932C265.955 0.679932 266 0.72542 266 0.72542C266 0.770908 265.955 0.816396 265.864 0.816396Z" fill="white"/>
<path d="M114.752 5.31973C114.752 5.27424 114.752 5.27424 114.797 5.22875C114.843 5.22875 114.843 5.22875 114.888 5.22875C114.888 5.22875 114.934 5.27424 114.934 5.31973C114.888 5.31973 114.888 5.36521 114.843 5.36521C114.843 5.36521 114.797 5.36521 114.752 5.31973Z" fill="white"/>
<path d="M234.067 11.3697C234.113 11.3697 234.158 11.3242 234.249 11.3242C234.249 11.3242 234.295 11.3697 234.295 11.4152C234.249 11.4152 234.204 11.4606 234.113 11.4606C234.067 11.4606 234.067 11.4152 234.067 11.3697Z" fill="white"/>
<path d="M188.17 5.63815C188.124 5.63815 188.079 5.63815 188.079 5.59266C188.079 5.50168 188.124 5.50168 188.215 5.50168L188.261 5.54717C188.261 5.59266 188.215 5.59266 188.17 5.63815Z" fill="white"/>
<path d="M134.357 5.8201L134.312 5.77461C134.357 5.72912 134.403 5.72912 134.448 5.8201C134.448 5.77461 134.403 5.8201 134.357 5.8201Z" fill="white"/>
<path d="M135.995 5.13777C135.995 5.09229 135.949 5.09229 135.949 5.0468C135.949 5.00131 135.995 5.00131 136.04 5.00131C136.131 5.00131 136.131 5.09229 136.086 5.13777C136.04 5.13777 135.995 5.13777 135.995 5.13777Z" fill="white"/>
<path d="M137.996 5.13777C137.951 5.13777 137.951 5.18326 137.905 5.18326C137.86 5.18326 137.86 5.13777 137.814 5.13777C137.86 5.13777 137.86 5.09229 137.905 5.09229C137.951 5.0468 137.951 5.09229 137.996 5.13777Z" fill="white"/>
<path d="M255.947 17.829C255.902 17.829 255.902 17.7835 255.856 17.7835L255.902 17.738C255.993 17.738 256.038 17.738 255.993 17.829C256.038 17.829 255.993 17.829 255.947 17.829Z" fill="white"/>
<path d="M158.329 6.5934C158.329 6.54791 158.284 6.54791 158.284 6.50242L158.329 6.45693C158.42 6.45693 158.42 6.50242 158.375 6.5934C158.42 6.5934 158.375 6.5934 158.329 6.5934Z" fill="white"/>
<path d="M108.793 5.63814C108.793 5.59265 108.747 5.59265 108.747 5.54717C108.793 5.54717 108.793 5.50168 108.838 5.50168C108.929 5.50168 108.975 5.54717 108.929 5.59265C108.884 5.63814 108.838 5.63814 108.793 5.63814Z" fill="white"/>
<path d="M179.163 6.9573C179.117 6.91182 179.072 6.86633 179.026 6.86633C179.072 6.86633 179.072 6.82084 179.117 6.82084C179.163 6.82084 179.254 6.82084 179.254 6.86633C179.299 6.91182 179.208 6.9573 179.163 6.9573Z" fill="white"/>
<path d="M132.492 5.0468C132.401 5.00131 132.356 4.95582 132.401 4.91033C132.447 4.86484 132.538 4.86484 132.583 4.86484L132.628 4.95582C132.583 5.00131 132.538 5.00131 132.492 5.0468Z" fill="white"/>
<path d="M258.176 17.9655L258.222 18.0109L258.176 18.0109L258.176 17.9655Z" fill="white"/>
<path d="M232.157 12.4159C232.248 12.3704 232.339 12.2794 232.43 12.2339C232.475 12.2339 232.521 12.2339 232.521 12.2339C232.566 12.2794 232.566 12.3704 232.475 12.3704C232.339 12.4159 232.248 12.4159 232.157 12.4159Z" fill="white"/>
<path d="M18.9989 7.09376C18.9534 7.09376 18.9534 7.13925 18.9079 7.13925C18.8169 7.09376 18.8169 7.04827 18.9079 7.04827C18.9079 7.04827 18.9534 7.09376 18.9989 7.09376Z" fill="white"/>
<path d="M130.081 4.91033C130.127 4.91033 130.127 4.86484 130.172 4.86484C130.218 4.86484 130.218 4.91033 130.263 4.91033C130.218 4.91033 130.218 4.95582 130.172 4.95582C130.127 4.95582 130.081 4.91033 130.081 4.91033Z" fill="white"/>
<path d="M122.212 6.86633L122.257 6.82084L122.303 6.86633L122.257 6.91181L122.212 6.86633Z" fill="white"/>
<path d="M203.454 7.09377L203.499 7.04828L203.545 7.09377L203.454 7.09377Z" fill="white"/>
<path d="M211.05 8.59488L211.05 8.50391C211.05 8.54939 211.005 8.59488 211.05 8.59488Z" fill="white"/>
</svg>
